<svg xmlns="http://www.w3.org/2000/svg" viewBox="0 0 900 700" role="img" aria-labelledby="title desc">
  <title id="title">Tinig ng Katotohanan logo</title>
  <desc id="desc">A Christian broadcast logo with a microphone, open Bible, wheat, crosses, and sound waves.</desc>
  <defs>
    <radialGradient id="sky" cx="50%" cy="48%" r="58%">
      <stop offset="0" stop-color="#d5fbff"/>
      <stop offset="0.56" stop-color="#63c7ff"/>
      <stop offset="1" stop-color="#1aa5ff"/>
    </radialGradient>
    <linearGradient id="gold" x1="0" x2="1" y1="0" y2="1">
      <stop offset="0" stop-color="#fff36b"/>
      <stop offset="0.36" stop-color="#f8c21b"/>
      <stop offset="1" stop-color="#986a00"/>
    </linearGradient>
    <linearGradient id="silver" x1="0" x2="1" y1="0" y2="1">
      <stop offset="0" stop-color="#f6f6f6"/>
      <stop offset="0.35" stop-color="#a8a8a8"/>
      <stop offset="0.7" stop-color="#2f2f2f"/>
      <stop offset="1" stop-color="#f4f4f4"/>
    </linearGradient>
    <linearGradient id="page" x1="0" x2="1" y1="0" y2="1">
      <stop offset="0" stop-color="#fff7e8"/>
      <stop offset="0.68" stop-color="#d9a263"/>
      <stop offset="1" stop-color="#7d4c23"/>
    </linearGradient>
    <filter id="softShadow" x="-20%" y="-20%" width="140%" height="140%">
      <feDropShadow dx="0" dy="16" stdDeviation="18" flood-color="#04576b" flood-opacity="0.22"/>
    </filter>
  </defs>

  <g filter="url(#softShadow)">
    <circle cx="450" cy="323" r="284" fill="url(#sky)"/>
    <circle cx="450" cy="323" r="276" fill="none" stroke="#33e4ff" stroke-width="18" opacity=".72"/>
    <circle cx="450" cy="323" r="238" fill="none" stroke="#fff5b7" stroke-width="2" opacity=".9"/>
    <circle cx="450" cy="323" r="218" fill="none" stroke="#fff5b7" stroke-width="1.5" opacity=".65"/>
  </g>

  <g fill="none" stroke="#ea6272" stroke-linecap="round" stroke-width="18" opacity=".95">
    <path d="M48 358v56"/>
    <path d="M88 310v152"/>
    <path d="M128 260v250"/>
    <path d="M168 330v84"/>
    <path d="M732 330v84"/>
    <path d="M772 290v182"/>
    <path d="M812 260v250"/>
    <path d="M852 342v72"/>
  </g>

  <g fill="#343434">
    <path d="M282 44h24v50h48v24h-48v68h-24v-68h-48V94h48z"/>
    <path d="M594 44h24v50h48v24h-48v68h-24v-68h-48V94h48z"/>
  </g>
  <g stroke="#343434" stroke-linecap="round" stroke-width="3" opacity=".8">
    <path d="M294 28v-22M294 196v24M215 106h-24M397 106h24M235 47l-18-18M371 165l18 18M235 165l-18 18M371 47l18-18"/>
    <path d="M606 28v-22M606 196v24M527 106h-24M709 106h24M547 47l-18-18M683 165l18 18M547 165l-18 18M683 47l18-18"/>
  </g>

  <g fill="none" stroke="url(#gold)" stroke-linecap="round" stroke-width="14">
    <path d="M295 520C197 405 207 240 332 135"/>
    <path d="M605 520c98-115 88-280-37-385"/>
  </g>
  <g fill="url(#gold)" stroke="#a57a00" stroke-width="1.5">
    <path d="M247 360c-30-22-42-49-35-80 25 13 42 37 45 72z"/>
    <path d="M267 304c-27-24-35-52-24-83 23 16 36 42 36 77z"/>
    <path d="M294 251c-22-28-25-57-8-85 20 20 29 48 21 82z"/>
    <path d="M326 203c-15-32-12-61 10-85 15 24 18 53 4 84z"/>
    <path d="M653 360c30-22 42-49 35-80-25 13-42 37-45 72z"/>
    <path d="M633 304c27-24 35-52 24-83-23 16-36 42-36 77z"/>
    <path d="M606 251c22-28 25-57 8-85-20 20-29 48-21 82z"/>
    <path d="M574 203c15-32 12-61-10-85-15 24-18 53-4 84z"/>
  </g>

  <g transform="translate(385 86)">
    <rect x="28" y="42" width="104" height="238" rx="48" fill="url(#silver)" stroke="#1f1f1f" stroke-width="4"/>
    <g stroke="#1c1c1c" stroke-linecap="round" stroke-width="12">
      <path d="M48 74h64"/>
      <path d="M42 104h76"/>
      <path d="M40 134h80"/>
      <path d="M42 164h76"/>
      <path d="M48 194h64"/>
      <path d="M58 224h44"/>
    </g>
    <path d="M80 282v96" stroke="#2b2b2b" stroke-linecap="round" stroke-width="18"/>
    <path d="M44 388h72" stroke="#2b2b2b" stroke-linecap="round" stroke-width="22"/>
  </g>

  <g transform="translate(118 476)">
    <path d="M0 72c114-44 220-47 332 18V13C204-37 90 0 0 72z" fill="url(#page)" stroke="#8a5427" stroke-width="4"/>
    <path d="M664 72C550 28 444 25 332 90V13c128-50 242-13 332 59z" fill="url(#page)" stroke="#8a5427" stroke-width="4"/>
    <path d="M332 14v78" stroke="#8a5427" stroke-width="4"/>
    <path d="M34 72c86-24 175-25 263 13M630 72c-86-24-175-25-263 13" stroke="#f7dfb7" stroke-width="5" opacity=".75"/>
  </g>

  <g transform="rotate(-4 450 421)">
    <text x="185" y="420" fill="#fff100" stroke="#827800" stroke-width="6" font-family="Arial Black, Impact, sans-serif" font-size="106" font-weight="900" letter-spacing="14">TINIG</text>
    <rect x="135" y="418" width="630" height="78" rx="16" fill="#fff100"/>
    <text x="166" y="472" fill="#050505" font-family="Arial Black, Impact, sans-serif" font-size="42" font-weight="900" letter-spacing="18">-NG KATOTOHANAN-</text>
  </g>

  <path d="M118 610h222l23-52 28 110 32-150 32 150 30-122 28 83 62-1 28-80 30 122 32-150 30 130 23-40h164" fill="none" stroke="#f71924" stroke-linejoin="miter" stroke-width="12"/>
</svg>
